<?xml version="1.0" encoding="UTF-8"?>
<svg width="20px" height="20px" viewBox="0 0 20 20" version="1.1" xmlns="http://www.w3.org/2000/svg" xmlns:xlink="http://www.w3.org/1999/xlink">
    <!-- Generator: Sketch 47.1 (45422) - http://www.bohemiancoding.com/sketch -->
    <title>icon-twitter</title>
    <desc>Created with Sketch.</desc>
    <defs></defs>
    <g id="移动端" stroke="none" stroke-width="1" fill="none" fill-rule="evenodd">
        <g id="移动端-(320-416-)-左侧导航" transform="translate(-200.000000, -14.000000)">
            <g id="icon-twitter" transform="translate(200.000000, 14.000000)">
                <circle id="twitter" fill="#28AAE1" cx="10" cy="10" r="10"></circle>
                <path d="M12.0068959,6.20052063 C12.8489228,6.18562043 13.2970877,6.49239901 13.7250546,6.8826187 C14.0884539,6.85132828 14.5606247,6.64835444 14.8387618,6.50713365 C14.9289908,6.45779743 15.0190542,6.40846121 15.1092832,6.35912499 C14.9503477,6.78858188 14.7349571,7.12449862 14.404007,7.37962317 C14.3304994,7.43624393 14.2574884,7.51273163 14.1652727,7.54882322 L14.1652727,7.55412107 C14.6369468,7.54915434 15.0261732,7.33641259 15.3956982,7.22101881 L15.3956982,7.22631666 C15.2014989,7.53491637 14.9387587,7.84782058 14.6584694,8.07215138 C14.5453934,8.16204926 14.4321519,8.25194713 14.3190759,8.34184501 C14.3252015,8.84133284 14.3117914,9.3179737 14.2182512,9.73766269 C13.6753872,12.1776533 12.2370212,13.8342245 9.95993945,14.5438052 C9.14224956,14.7985986 7.82093288,14.9032311 6.88404138,14.6706224 C6.41948624,14.5553942 5.99979726,14.4252658 5.60593529,14.2530857 C5.38723346,14.1573933 5.18459073,14.0537541 4.99088812,13.9357114 C4.92714838,13.8969709 4.86357419,13.8582304 4.8,13.8194898 C5.01125173,13.825781 5.2584295,13.8840574 5.49468046,13.8459791 C5.70841556,13.8113775 5.91801171,13.8204832 6.11502548,13.7771071 C6.60689765,13.6693289 7.04347353,13.5266181 7.41962082,13.3065918 C7.60206549,13.1999726 7.87871255,13.0744798 8.00834429,12.9206766 C7.76414656,12.9249811 7.54279581,12.8683604 7.36134448,12.8042895 C6.65805501,12.5559528 6.24879617,12.09951 5.98257925,11.4137697 C6.19565212,11.4369478 6.80937482,11.4925752 6.95291342,11.3713869 C6.68470981,11.3566523 6.42677078,11.2013591 6.24233941,11.0859653 C5.67679402,10.7320027 5.21538448,10.1383125 5.21886119,9.22493023 C5.29319664,9.26002848 5.36736653,9.29529229 5.44153641,9.3305561 C5.58375055,9.39048801 5.72811694,9.42260622 5.89764811,9.45737336 C5.96933463,9.47227356 6.11237655,9.51432524 6.19465877,9.4838626 L6.18406307,9.4838626 C6.07462938,9.35654867 5.89632365,9.27161752 5.78622772,9.13503235 C5.42332506,8.68388739 5.08326937,7.98953805 5.29849449,7.16274247 C5.352963,6.95314632 5.43954972,6.76788716 5.5317654,6.59703153 C5.53524212,6.59885266 5.53888439,6.6006738 5.5423611,6.60232937 C5.58457834,6.69090279 5.67878072,6.75563588 5.73854708,6.82964021 C5.9239718,7.05943442 6.15260709,7.26605053 6.3855469,7.44832965 C7.17939647,8.06917134 7.89427498,8.45061647 9.04241821,8.73305805 C9.33363436,8.80474457 9.67037889,8.8595442 10.0182158,8.86004087 C9.9205367,8.57544704 9.95182712,8.11503085 10.0288115,7.83954269 C10.2223485,7.14701448 10.6425342,6.64785776 11.2592369,6.38031639 C11.4065834,6.31641108 11.5701545,6.26972379 11.7416723,6.23230773 C11.8300802,6.22171203 11.918488,6.21111633 12.0068959,6.20052063" id="twitter" fill="#FFFFFF"></path>
            </g>
        </g>
    </g>
</svg>