<?xml version="1.0" encoding="UTF-8"?>
<svg width="20px" height="20px" viewBox="0 0 20 20" version="1.1" xmlns="http://www.w3.org/2000/svg" xmlns:xlink="http://www.w3.org/1999/xlink">
    <!-- Generator: Sketch 47.1 (45422) - http://www.bohemiancoding.com/sketch -->
    <title>icon-telegram</title>
    <desc>Created with Sketch.</desc>
    <defs></defs>
    <g id="移动端" stroke="none" stroke-width="1" fill="none" fill-rule="evenodd">
        <g id="移动端-(320-416-)-左侧导航" transform="translate(-240.000000, -14.000000)">
            <g id="icon-telegram" transform="translate(240.000000, 14.000000)">
                <path d="M20,10 C20,11.3541667 19.7358631,12.6488095 19.2075893,13.8839286 C18.6793155,15.1190476 17.96875,16.1830357 17.0758929,17.0758929 C16.1830357,17.96875 15.1190476,18.6793155 13.8839286,19.2075893 C12.6488095,19.7358631 11.3541667,20 10,20 C8.64583333,20 7.35119048,19.7358631 6.11607143,19.2075893 C4.88095238,18.6793155 3.81696428,17.96875 2.92410715,17.0758929 C2.03125001,16.1830357 1.32068454,15.1190476 0.792410723,13.8839286 C0.264136908,12.6488095 -3.70074342e-16,11.3541667 0,10 C3.70074342e-16,8.64583333 0.264136908,7.35119048 0.792410723,6.11607143 C1.32068454,4.88095238 2.03125001,3.81696428 2.92410715,2.92410715 C3.81696428,2.03125001 4.88095238,1.32068454 6.11607143,0.792410723 C7.35119048,0.264136908 8.64583333,1.85037171e-16 10,0 C11.3541667,-1.85037171e-16 12.6488095,0.264136908 13.8839286,0.792410723 C15.1190476,1.32068454 16.1830357,2.03125001 17.0758929,2.92410715 C17.96875,3.81696428 18.6793155,4.88095238 19.2075893,6.11607143 C19.7358631,7.35119048 20,8.64583333 20,10 Z" id="Shape" fill="#259ED8" fill-rule="nonzero"></path>
                <path d="M13.2700893,14.5870536 L14.9107143,6.85267857 C14.9776786,6.52529762 14.9386161,6.29092262 14.7935268,6.14955357 C14.6484375,6.00818452 14.4568452,5.98214286 14.21875,6.07142857 L4.57589285,9.78794643 C4.36011904,9.86979166 4.21316964,9.96279761 4.13504465,10.0669643 C4.05691966,10.1711309 4.04761906,10.2697173 4.10714285,10.3627232 C4.16666664,10.4557292 4.28571426,10.5282738 4.46428572,10.5803571 L6.93080357,11.3504464 L12.65625,7.74553572 C12.8125,7.64136906 12.9315476,7.61904762 13.0133929,7.67857143 C13.0654762,7.71577381 13.0505952,7.77157738 12.96875,7.84598215 L8.33705357,12.03125 L8.15848215,14.5758929 C8.3296131,14.5758929 8.49702381,14.4940476 8.66071428,14.3303571 L9.86607143,13.1696429 L12.3660714,15.0111607 C12.8422619,15.2790179 13.1436012,15.1376488 13.2700893,14.5870536 L13.2700893,14.5870536 Z" id="Path" fill="#FFFFFF"></path>
            </g>
        </g>
    </g>
</svg>